<mxfile host="app.diagrams.net" modified="2023-08-07T12:14:39.051Z" agent="Mozilla/5.0 (Windows NT 10.0; Win64; x64) AppleWebKit/537.36 (KHTML, like Gecko) Chrome/115.0.0.0 Safari/537.36" etag="kNYldSeg6GQxqki2dchf" version="21.6.6" type="device">
  <diagram name="Page-1" id="0vnBrcRykOiKOxHYfUiX">
    <mxGraphModel dx="1764" dy="1013" grid="1" gridSize="10" guides="1" tooltips="1" connect="1" arrows="1" fold="1" page="1" pageScale="1" pageWidth="850" pageHeight="1100" math="0" shadow="0">
      <root>
        <mxCell id="0" />
        <mxCell id="1" parent="0" />
        <mxCell id="kJCxh1GiJJdLtUK9aNzd-1" value="AWS Cloud" style="points=[[0,0],[0.25,0],[0.5,0],[0.75,0],[1,0],[1,0.25],[1,0.5],[1,0.75],[1,1],[0.75,1],[0.5,1],[0.25,1],[0,1],[0,0.75],[0,0.5],[0,0.25]];outlineConnect=0;gradientColor=none;html=1;whiteSpace=wrap;fontSize=12;fontStyle=0;container=1;pointerEvents=0;collapsible=0;recursiveResize=0;shape=mxgraph.aws4.group;grIcon=mxgraph.aws4.group_aws_cloud_alt;strokeColor=#232F3E;fillColor=none;verticalAlign=top;align=left;spacingLeft=30;fontColor=#232F3E;dashed=0;" vertex="1" parent="1">
          <mxGeometry x="40" y="40" width="760" height="1040" as="geometry" />
        </mxCell>
        <mxCell id="kJCxh1GiJJdLtUK9aNzd-2" value="Region" style="points=[[0,0],[0.25,0],[0.5,0],[0.75,0],[1,0],[1,0.25],[1,0.5],[1,0.75],[1,1],[0.75,1],[0.5,1],[0.25,1],[0,1],[0,0.75],[0,0.5],[0,0.25]];outlineConnect=0;gradientColor=none;html=1;whiteSpace=wrap;fontSize=12;fontStyle=0;container=1;pointerEvents=0;collapsible=0;recursiveResize=0;shape=mxgraph.aws4.group;grIcon=mxgraph.aws4.group_region;strokeColor=#147EBA;fillColor=none;verticalAlign=top;align=left;spacingLeft=30;fontColor=#147EBA;dashed=1;" vertex="1" parent="1">
          <mxGeometry x="80" y="80" width="670" height="950" as="geometry" />
        </mxCell>
        <mxCell id="kJCxh1GiJJdLtUK9aNzd-3" value="&lt;font color=&quot;#000000&quot;&gt;Virtual Private Cloud&lt;/font&gt;" style="points=[[0,0],[0.25,0],[0.5,0],[0.75,0],[1,0],[1,0.25],[1,0.5],[1,0.75],[1,1],[0.75,1],[0.5,1],[0.25,1],[0,1],[0,0.75],[0,0.5],[0,0.25]];outlineConnect=0;gradientColor=none;html=1;whiteSpace=wrap;fontSize=12;fontStyle=0;container=1;pointerEvents=0;collapsible=0;recursiveResize=0;shape=mxgraph.aws4.group;grIcon=mxgraph.aws4.group_vpc;strokeColor=#248814;fillColor=none;verticalAlign=top;align=left;spacingLeft=30;fontColor=#AAB7B8;dashed=0;" vertex="1" parent="kJCxh1GiJJdLtUK9aNzd-2">
          <mxGeometry x="20" y="30" width="600" height="880" as="geometry" />
        </mxCell>
        <mxCell id="kJCxh1GiJJdLtUK9aNzd-5" value="Public subnet" style="points=[[0,0],[0.25,0],[0.5,0],[0.75,0],[1,0],[1,0.25],[1,0.5],[1,0.75],[1,1],[0.75,1],[0.5,1],[0.25,1],[0,1],[0,0.75],[0,0.5],[0,0.25]];outlineConnect=0;gradientColor=none;html=1;whiteSpace=wrap;fontSize=12;fontStyle=0;container=1;pointerEvents=0;collapsible=0;recursiveResize=0;shape=mxgraph.aws4.group;grIcon=mxgraph.aws4.group_security_group;grStroke=0;strokeColor=#248814;fillColor=#E9F3E6;verticalAlign=top;align=left;spacingLeft=30;fontColor=#248814;dashed=0;" vertex="1" parent="kJCxh1GiJJdLtUK9aNzd-3">
          <mxGeometry x="70" y="160" width="170" height="400" as="geometry" />
        </mxCell>
        <mxCell id="kJCxh1GiJJdLtUK9aNzd-6" value="" style="outlineConnect=0;dashed=0;verticalLabelPosition=bottom;verticalAlign=top;align=center;html=1;shape=mxgraph.aws3.ec2;fillColor=#F58534;gradientColor=none;" vertex="1" parent="kJCxh1GiJJdLtUK9aNzd-5">
          <mxGeometry x="30" y="170" width="76.5" height="93" as="geometry" />
        </mxCell>
        <mxCell id="kJCxh1GiJJdLtUK9aNzd-7" value="Internet&#xa;gateway" style="sketch=0;outlineConnect=0;fontColor=#232F3E;gradientColor=none;strokeColor=#232F3E;fillColor=#ffffff;dashed=0;verticalLabelPosition=bottom;verticalAlign=top;align=center;html=1;fontSize=12;fontStyle=0;aspect=fixed;shape=mxgraph.aws4.resourceIcon;resIcon=mxgraph.aws4.internet_gateway;" vertex="1" parent="kJCxh1GiJJdLtUK9aNzd-3">
          <mxGeometry x="110" y="540" width="70" height="70" as="geometry" />
        </mxCell>
        <mxCell id="kJCxh1GiJJdLtUK9aNzd-8" value="" style="sketch=0;outlineConnect=0;fontColor=#232F3E;gradientColor=none;fillColor=#232F3D;strokeColor=none;dashed=0;verticalLabelPosition=bottom;verticalAlign=top;align=center;html=1;fontSize=12;fontStyle=0;aspect=fixed;pointerEvents=1;shape=mxgraph.aws4.internet_alt22;" vertex="1" parent="kJCxh1GiJJdLtUK9aNzd-3">
          <mxGeometry x="106" y="670" width="78" height="78" as="geometry" />
        </mxCell>
        <mxCell id="kJCxh1GiJJdLtUK9aNzd-9" value="AP South - 1b" style="fillColor=none;strokeColor=#147EBA;dashed=1;verticalAlign=top;fontStyle=0;fontColor=#147EBA;whiteSpace=wrap;html=1;" vertex="1" parent="kJCxh1GiJJdLtUK9aNzd-3">
          <mxGeometry x="340" y="120" width="220" height="550" as="geometry" />
        </mxCell>
        <mxCell id="kJCxh1GiJJdLtUK9aNzd-4" value="&amp;nbsp;AP South - 1a" style="fillColor=none;strokeColor=#147EBA;dashed=1;verticalAlign=top;fontStyle=0;fontColor=#147EBA;whiteSpace=wrap;html=1;" vertex="1" parent="kJCxh1GiJJdLtUK9aNzd-3">
          <mxGeometry x="40" y="120" width="220" height="470" as="geometry" />
        </mxCell>
        <mxCell id="kJCxh1GiJJdLtUK9aNzd-13" value="NAT gateway" style="sketch=0;outlineConnect=0;fontColor=#232F3E;gradientColor=none;strokeColor=#232F3E;fillColor=#ffffff;dashed=0;verticalLabelPosition=bottom;verticalAlign=top;align=center;html=1;fontSize=12;fontStyle=0;aspect=fixed;shape=mxgraph.aws4.resourceIcon;resIcon=mxgraph.aws4.nat_gateway;" vertex="1" parent="kJCxh1GiJJdLtUK9aNzd-3">
          <mxGeometry x="220" y="340" width="60" height="60" as="geometry" />
        </mxCell>
        <mxCell id="kJCxh1GiJJdLtUK9aNzd-15" value="Private subnet" style="points=[[0,0],[0.25,0],[0.5,0],[0.75,0],[1,0],[1,0.25],[1,0.5],[1,0.75],[1,1],[0.75,1],[0.5,1],[0.25,1],[0,1],[0,0.75],[0,0.5],[0,0.25]];outlineConnect=0;gradientColor=none;html=1;whiteSpace=wrap;fontSize=12;fontStyle=0;container=1;pointerEvents=0;collapsible=0;recursiveResize=0;shape=mxgraph.aws4.group;grIcon=mxgraph.aws4.group_security_group;grStroke=0;strokeColor=#147EBA;fillColor=#E6F2F8;verticalAlign=top;align=left;spacingLeft=30;fontColor=#147EBA;dashed=0;" vertex="1" parent="kJCxh1GiJJdLtUK9aNzd-3">
          <mxGeometry x="370" y="170" width="160" height="380" as="geometry" />
        </mxCell>
        <mxCell id="kJCxh1GiJJdLtUK9aNzd-19" value="DataBase" style="text;html=1;align=center;verticalAlign=middle;resizable=0;points=[];autosize=1;strokeColor=none;fillColor=none;" vertex="1" parent="kJCxh1GiJJdLtUK9aNzd-15">
          <mxGeometry x="35" y="265" width="80" height="30" as="geometry" />
        </mxCell>
        <mxCell id="kJCxh1GiJJdLtUK9aNzd-16" value="" style="image;aspect=fixed;perimeter=ellipsePerimeter;html=1;align=center;shadow=0;dashed=0;spacingTop=3;image=img/lib/active_directory/database_server.svg;" vertex="1" parent="kJCxh1GiJJdLtUK9aNzd-3">
          <mxGeometry x="424.5" y="340" width="57.4" height="70" as="geometry" />
        </mxCell>
        <mxCell id="kJCxh1GiJJdLtUK9aNzd-18" value="WEB App in EC2" style="text;html=1;align=center;verticalAlign=middle;resizable=0;points=[];autosize=1;strokeColor=none;fillColor=none;" vertex="1" parent="kJCxh1GiJJdLtUK9aNzd-3">
          <mxGeometry x="80" y="440" width="110" height="30" as="geometry" />
        </mxCell>
        <mxCell id="kJCxh1GiJJdLtUK9aNzd-20" value="&amp;nbsp; &amp;nbsp; &amp;nbsp; &amp;nbsp; &amp;nbsp; &amp;nbsp; &amp;nbsp; &amp;nbsp; &amp;nbsp; Security group" style="fillColor=none;strokeColor=#DD3522;verticalAlign=top;fontStyle=0;fontColor=#DD3522;whiteSpace=wrap;html=1;" vertex="1" parent="kJCxh1GiJJdLtUK9aNzd-3">
          <mxGeometry x="80" y="260" width="410" height="220" as="geometry" />
        </mxCell>
        <mxCell id="kJCxh1GiJJdLtUK9aNzd-25" value="Internet" style="text;html=1;align=center;verticalAlign=middle;resizable=0;points=[];autosize=1;strokeColor=none;fillColor=none;" vertex="1" parent="kJCxh1GiJJdLtUK9aNzd-3">
          <mxGeometry x="115" y="740" width="60" height="30" as="geometry" />
        </mxCell>
        <mxCell id="kJCxh1GiJJdLtUK9aNzd-17" value="" style="edgeStyle=orthogonalEdgeStyle;html=1;endArrow=none;elbow=vertical;startArrow=block;startFill=1;strokeColor=#545B64;rounded=0;entryX=0.27;entryY=0.571;entryDx=0;entryDy=0;entryPerimeter=0;" edge="1" parent="1" target="kJCxh1GiJJdLtUK9aNzd-16">
          <mxGeometry width="100" relative="1" as="geometry">
            <mxPoint x="390" y="490" as="sourcePoint" />
            <mxPoint x="490" y="490" as="targetPoint" />
          </mxGeometry>
        </mxCell>
      </root>
    </mxGraphModel>
  </diagram>
</mxfile>
